# xmcd CD database file
# Copyright (C) 1993-1998 Ti Kan
#
# Track frame offsets:
#	150
#	18525
#	34265
#	51977
#	66347
#	83577
#	103225
#	118757
#	133387
#	154032
#
# Disc length: 2285 seconds
#
# Revision: 1
# Processed by: cddbd v1.4b41PL1 Copyright (c) Steve Scherf et al.
# Submitted via: CDValet v3.31 - Copyright (c) 1997 Greg Leichner
#
DISCID=8e08eb0a
DTITLE=Lou Rawls - When You Heard Lou, You've Heard It all
DYEAR=1900
DGENRE=
TTITLE0=Lady Love
TTITLE1=I wish It Were Yesterday
TTITLE2=One Life To Live
TTITLE3=Dollar Green
TTITLE4=Trade Winds
TTITLE5=There Will be Love
TTITLE6=Unforgettable
TTITLE7=That Would Do It for Me
TTITLE8=If I Coulda, Woulda,Shoulda
TTITLE9=Not the Staying Kind
EXTD=
EXTT0=
EXTT1=
EXTT2=
EXTT3=
EXTT4=
EXTT5=
EXTT6=
EXTT7=
EXTT8=
EXTT9=
PLAYORDER=
